<?xml version="1.0" encoding="UTF-8"?>
<svg id="Layer_2" data-name="Layer 2" xmlns="http://www.w3.org/2000/svg" viewBox="0 0 118.37 122.84">
  <defs>
    <style>
      .cls-1 {
        fill: #2d3840;
        stroke-width: 0px;
      }
    </style>
  </defs>
  <g id="Layer_1-2" data-name="Layer 1">
    <g>
      <path class="cls-1" d="M40.57,46.85c-.2,0-.41-.03-.62-.09-1.22-.34-1.93-1.61-1.59-2.83,1.09-3.88,3.08-7.52,5.76-10.53,2.68-3.01,6.07-5.4,9.8-6.93,1.17-.48,2.51.08,2.99,1.26.48,1.17-.08,2.51-1.26,2.99-3.09,1.26-5.89,3.24-8.11,5.73-2.22,2.49-3.87,5.5-4.77,8.71-.28,1.01-1.2,1.68-2.21,1.68Z"/>
      <path class="cls-1" d="M77.89,35.67c-.59,0-1.17-.22-1.62-.67l-.41-.41c-.9-.9-.9-2.35,0-3.24.89-.9,2.35-.9,3.24,0l.41.41c.9.9.9,2.35,0,3.24-.45.45-1.03.67-1.62.67Z"/>
      <path class="cls-1" d="M118.37,24.79v97.84h-12.92l-28.89-42.03-1.11-1.62-1.55-2.25-20.01-29.12-13.8,19.63-1.1,1.56-1.65,2.35-2.98,4.24h-11.03L0,107.22V24.79h40.76c-1.42,1.28-2.72,2.68-3.91,4.19H4.19v65.45l17.02-23.2h10.98l2.56-3.65,1.76-2.5,1.14-1.62,16.28-23.16,23.78,34.6,1.58,2.3,1.03,1.49,27.33,39.76h6.53V28.98h-24.56c-1.19-1.5-2.49-2.91-3.91-4.19h32.66Z"/>
      <polygon class="cls-1" points="96.13 122.84 91.05 122.84 63.91 83.35 62.35 81.08 60.69 78.66 53.89 68.78 49.35 75.24 48.2 76.87 46.7 79.01 37.04 92.76 31.91 92.76 43.19 76.72 44.72 74.54 45.83 72.97 53.93 61.44 65.77 78.66 67.35 80.95 68.7 82.92 96.13 122.84"/>
      <path class="cls-1" d="M96.79,49.76c0,12.3-6.64,23.07-16.52,28.93l-1.03-1.49-1.58-2.3c8.68-5.02,14.54-14.41,14.54-25.14,0-16.01-13.02-29.02-29.02-29.02s-29.02,13.02-29.02,29.02c0,4.95,1.25,9.61,3.44,13.69l-1.14,1.62-1.76,2.5c-3.24-5.17-5.13-11.27-5.13-17.81,0-7.85,2.71-15.06,7.23-20.78,1.19-1.5,2.49-2.91,3.91-4.19,5.96-5.37,13.84-8.64,22.48-8.64s16.52,3.27,22.48,8.64c1.42,1.28,2.72,2.68,3.91,4.19,4.52,5.72,7.23,12.94,7.23,20.78Z"/>
      <path class="cls-1" d="M67.44,28.37s-.07,0-.11-.01c-1.1-.14-1.88-1.15-1.73-2.25,1.26-9.72,8.76-22.52,20.58-26.05,1.06-.32,3.05.91,3.37,1.98.32,1.06-.05,3.11-1.11,3.42-10.26,3.07-17.76,12.72-18.86,21.17-.14,1.06-1.08,1.82-2.14,1.74Z"/>
    </g>
  </g>
</svg>