<?xml version="1.0" encoding="UTF-8"?>
<svg id="Layer_2" data-name="Layer 2" xmlns="http://www.w3.org/2000/svg" viewBox="0 0 158.89 158.89">
  <defs>
    <style>
      .cls-1 {
        fill: #f3eff5;
      }

      .cls-1, .cls-2, .cls-3, .cls-4 {
        stroke-width: 0px;
      }

      .cls-2 {
        fill: #961b1e;
      }

      .cls-3 {
        fill: #2d3840;
      }

      .cls-4 {
        fill: #00a651;
      }
    </style>
  </defs>
  <g id="Layer_1-2" data-name="Layer 1">
    <g>
      <circle class="cls-1" cx="79.44" cy="79.44" r="79.44"/>
      <g>
        <path class="cls-2" d="M42.41,76.41c-.25,0-.51-.03-.77-.11-1.51-.42-2.39-1.99-1.97-3.49,1.34-4.8,3.8-9.29,7.12-13.01s7.5-6.68,12.11-8.56c1.44-.59,3.1.1,3.7,1.55.59,1.45-.1,3.1-1.55,3.7-3.81,1.56-7.28,4.01-10.02,7.09-2.74,3.08-4.78,6.8-5.89,10.77-.35,1.25-1.49,2.07-2.73,2.07Z"/>
        <path class="cls-2" d="M88.52,62.6c-.73,0-1.45-.28-2-.83l-.5-.5c-1.11-1.11-1.11-2.9,0-4.01,1.11-1.11,2.9-1.11,4.01,0l.5.5c1.11,1.11,1.11,2.9,0,4.01-.55.55-1.28.83-2,.83Z"/>
        <path class="cls-2" d="M111.87,80.01c0,15.19-8.21,28.5-20.42,35.74l-1.27-1.84-1.96-2.84c10.73-6.21,17.97-17.8,17.97-31.06,0-19.78-16.09-35.86-35.86-35.86s-35.86,16.09-35.86,35.86c0,6.12,1.54,11.87,4.25,16.91l-1.41,2.01-2.18,3.09c-4-6.38-6.34-13.93-6.34-22.01,0-9.69,3.34-18.61,8.93-25.68,1.47-1.86,3.08-3.59,4.83-5.17,7.36-6.63,17.1-10.68,27.77-10.68s20.41,4.05,27.77,10.68c1.75,1.58,3.37,3.32,4.83,5.17,5.58,7.07,8.93,15.99,8.93,25.68Z"/>
        <path class="cls-4" d="M75.69,56s-.09,0-.14-.01c-1.36-.18-2.32-1.42-2.14-2.78,1.56-12.01,10.82-27.83,25.43-32.19,1.31-.39,3.77,1.13,4.17,2.44.39,1.31-.06,3.84-1.37,4.23-12.68,3.79-21.95,15.71-23.3,26.16-.17,1.31-1.34,2.25-2.64,2.16Z"/>
        <path class="cls-3" d="M138.54,49.15v83.47c-.29.32-.57.64-.87.96-1.37,1.5-2.81,2.93-4.3,4.32-5.36,4.98-11.39,9.24-17.95,12.61-1.55.79-3.13,1.54-4.74,2.23l-2.86-4.17-10.31-14.99-3.41-4.96-7.21-10.49-1.37-2-1.91-2.78-24.72-35.98-17.05,24.26-1.35,1.93-2.04,2.91-3.68,5.24h-13.63l-5.53,7.54c-.06-.1-.12-.2-.18-.3v.55l-2.95,4.02c-.69-1.04-1.36-2.1-2.01-3.18V49.22s.01-.04.03-.06h32.19c-1.76,1.58-3.37,3.32-4.83,5.17H15.39v56.43l3.1-4.22h13.56l3.17-4.51,2.18-3.09,1.41-2.01,20.12-28.61,29.39,42.76,1.96,2.84,1.27,1.84,8.84,12.87,3.41,4.96,8.8,12.8c6.68-3.36,12.78-7.68,18.14-12.8.91-.86,1.79-1.75,2.64-2.65V54.33h-30.35c-1.47-1.86-3.08-3.59-4.83-5.17h40.36Z"/>
        <path class="cls-3" d="M101.31,156.12c-1.76.51-3.54.96-5.35,1.35l-3.05-4.44-13.38-19.46-3.41-4.96-4.88-7.1-1.93-2.81-2.06-2.99-8.4-12.22-5.61,7.99-1.42,2.02-1.85,2.64-8.77,12.47-3.17,4.52h-6.33l3.17-4.52,10.76-15.3,1.89-2.69,1.37-1.94,10.01-14.24,14.63,21.28,1.94,2.83,1.67,2.43,5.25,7.64,3.41,4.96,12.52,18.22,2.97,4.32Z"/>
      </g>
    </g>
  </g>
</svg>