<?xml version="1.0" encoding="UTF-8"?>
<svg id="Layer_2" data-name="Layer 2" xmlns="http://www.w3.org/2000/svg" viewBox="0 0 406.93 106.93">
  <defs>
    <style>
      .cls-1 {
        fill: #f3eff5;
        stroke-width: 0px;
      }
    </style>
  </defs>
  <g id="Layer_1-2" data-name="Layer 1">
    <g>
      <g>
        <path class="cls-1" d="M35.32,40.78c-.18,0-.36-.02-.54-.07-1.06-.3-1.68-1.4-1.38-2.46.95-3.38,2.68-6.55,5.01-9.17,2.33-2.62,5.28-4.7,8.53-6.03,1.02-.42,2.19.07,2.6,1.09.42,1.02-.07,2.19-1.09,2.6-2.69,1.1-5.13,2.82-7.06,4.99-1.93,2.17-3.37,4.79-4.15,7.59-.25.88-1.05,1.46-1.92,1.46Z"/>
        <path class="cls-1" d="M67.8,31.05c-.51,0-1.02-.2-1.41-.58l-.35-.35c-.78-.78-.78-2.04,0-2.82.78-.78,2.04-.78,2.82,0l.35.35c.78.78.78,2.04,0,2.82-.39.39-.9.58-1.41.58Z"/>
        <path class="cls-1" d="M103.04,21.58v85.18h-11.25l-25.15-36.58-.97-1.41-1.35-1.96-17.42-25.35-12.01,17.09-.95,1.36-1.44,2.05-2.6,3.69h-9.61L0,93.34V21.58h35.48c-1.24,1.11-2.37,2.34-3.4,3.64H3.64v56.98l14.82-20.2h9.56l2.23-3.18,1.53-2.18.99-1.41,14.17-20.16,20.7,30.12,1.38,2,.89,1.3,23.79,34.61h5.69V25.22h-21.38c-1.03-1.31-2.17-2.53-3.4-3.64h28.43Z"/>
        <polygon class="cls-1" points="83.69 106.93 79.26 106.93 55.64 72.56 54.28 70.59 52.83 68.48 46.91 59.87 42.96 65.5 41.96 66.92 40.65 68.78 32.24 80.75 27.78 80.75 37.6 66.79 38.93 64.89 39.89 63.52 46.95 53.49 57.26 68.48 58.63 70.47 59.8 72.18 83.69 106.93"/>
        <path class="cls-1" d="M84.26,43.32c0,10.7-5.78,20.08-14.38,25.18l-.89-1.3-1.38-2c7.56-4.37,12.66-12.54,12.66-21.88,0-13.93-11.34-25.27-25.27-25.27s-25.27,11.33-25.27,25.27c0,4.31,1.09,8.36,3,11.92l-.99,1.41-1.53,2.18c-2.82-4.5-4.46-9.82-4.46-15.51,0-6.83,2.36-13.11,6.29-18.09,1.03-1.31,2.17-2.53,3.4-3.64,5.19-4.67,12.05-7.52,19.57-7.52s14.38,2.85,19.57,7.52c1.23,1.11,2.37,2.34,3.4,3.64,3.93,4.98,6.29,11.26,6.29,18.09Z"/>
        <path class="cls-1" d="M58.71,24.69s-.06,0-.1-.01c-.96-.12-1.63-1-1.51-1.96C58.2,14.26,64.72,3.12,75.02.04c.93-.28,2.66.8,2.94,1.72.28.92-.04,2.7-.97,2.98-8.93,2.67-15.46,11.07-16.42,18.43-.12.92-.94,1.59-1.86,1.52Z"/>
      </g>
      <g>
        <g>
          <path class="cls-1" d="M143.02,64.69h.14l-.14,2.25c-1.73.75-5.1,1.5-8.43,1.5-10.86,0-14.52-8.76-14.52-16.91,0-9.18,4.59-17.61,15.22-17.61,3.42,0,6.27.8,7.82,1.36l.33,2.29h-.14c-1.87-.75-5.1-1.5-8.1-1.5-7.73,0-12.69,5.53-12.69,15.22,0,7.68,3.23,14.99,12.55,14.99,3,0,5.76-.7,7.96-1.59Z"/>
          <path class="cls-1" d="M172.61,34.35h2.34v33.67h-2.34v-16.2h-19.34v16.2h-2.34v-33.67h2.34v15.41h19.34v-15.41Z"/>
          <path class="cls-1" d="M185.25,34.35h18.73v2.06h-16.39v13.07h14.42v2.06h-14.42v14.42h16.39v2.06h-18.73v-33.67Z"/>
          <path class="cls-1" d="M212.41,68.02v-33.67h9.27c8.57,0,11.19,3.61,11.19,9.18,0,4.87-2.29,8.48-6.93,10.02l8.1,14.47h-2.62l-7.77-13.96c-1.08.19-2.25.28-3.47.28h-5.43v13.67h-2.34ZM220.65,52.28c6.98,0,9.79-3.28,9.79-8.48s-2.53-7.4-8.99-7.4h-6.7v15.88h5.9Z"/>
          <path class="cls-1" d="M241.3,68.02v-33.67h9.27c8.57,0,11.19,3.61,11.19,9.18,0,4.87-2.29,8.48-6.93,10.02l8.1,14.47h-2.62l-7.77-13.96c-1.08.19-2.25.28-3.47.28h-5.43v13.67h-2.34ZM249.55,52.28c6.98,0,9.79-3.28,9.79-8.48s-2.53-7.4-8.99-7.4h-6.7v15.88h5.9Z"/>
          <path class="cls-1" d="M264.81,34.35h2.72l9.04,17.14h.05l9.37-17.14h2.48l-10.72,19.57v14.1h-2.34v-14.05l-10.58-19.62Z"/>
          <path class="cls-1" d="M292.77,68.02v-33.67h11.43c9.65,0,12.6,4.45,12.6,11.05,0,7.63-4.87,12.13-13.02,12.13h-5.1v10.49h-5.9ZM303.49,52.75c4.78,0,7.21-2.53,7.21-7.17s-2.11-6.46-6.32-6.46h-5.71v13.63h4.82Z"/>
          <path class="cls-1" d="M322.36,34.35h20.56v4.82h-14.66v9.37h12.69v4.64h-12.69v10.07h14.66v4.78h-20.56v-33.67Z"/>
          <path class="cls-1" d="M358,34.35h7.07l11.57,33.67h-6.09l-2.9-8.57h-12.5l-2.81,8.57h-6.04l11.71-33.67ZM356.31,54.95h10.26l-5.2-15.5-5.06,15.5Z"/>
          <path class="cls-1" d="M387.31,50.79l12.32-16.44h6.7l-12.6,16.16,13.21,17.51h-6.93l-12.69-16.86v16.86h-5.9v-33.67h5.9v16.44Z"/>
        </g>
        <g>
          <path class="cls-1" d="M157.24,86.6c0-3.82,2.91-6.6,6.84-6.6,1.99,0,3.73.68,4.91,2.01l-1.2,1.16c-1-1.05-2.21-1.53-3.63-1.53-2.92,0-5.07,2.1-5.07,4.96s2.16,4.96,5.07,4.96c1.42,0,2.64-.5,3.63-1.55l1.2,1.16c-1.18,1.33-2.92,2.03-4.93,2.03-3.91,0-6.83-2.79-6.83-6.6Z"/>
          <path class="cls-1" d="M195.02,93.05l-2.79-3.97c-.26.02-.54.04-.81.04h-3.19v3.93h-1.84v-12.91h5.04c3.36,0,5.39,1.7,5.39,4.5,0,1.99-1.03,3.43-2.84,4.08l3.06,4.34h-2.01ZM194.97,84.64c0-1.84-1.24-2.9-3.6-2.9h-3.14v5.81h3.14c2.36,0,3.6-1.07,3.6-2.91Z"/>
          <path class="cls-1" d="M223.93,91.45v1.6h-9.37v-12.91h9.11v1.6h-7.27v3.97h6.47v1.57h-6.47v4.17h7.53Z"/>
          <path class="cls-1" d="M249.9,89.82h-6.86l-1.42,3.23h-1.9l5.85-12.91h1.83l5.87,12.91h-1.94l-1.42-3.23ZM249.26,88.35l-2.79-6.33-2.79,6.33h5.57Z"/>
          <path class="cls-1" d="M271.86,81.74h-4.43v-1.6h10.68v1.6h-4.43v11.31h-1.83v-11.31Z"/>
          <path class="cls-1" d="M294.88,80.14h1.84v12.91h-1.84v-12.91Z"/>
          <path class="cls-1" d="M326.44,80.14l-5.66,12.91h-1.83l-5.68-12.91h1.99l4.65,10.61,4.69-10.61h1.84Z"/>
          <path class="cls-1" d="M352.21,91.45v1.6h-9.37v-12.91h9.11v1.6h-7.27v3.97h6.47v1.57h-6.47v4.17h7.53Z"/>
        </g>
      </g>
    </g>
  </g>
</svg>