<?xml version="1.0" encoding="UTF-8"?>
<svg id="Layer_2" data-name="Layer 2" xmlns="http://www.w3.org/2000/svg" viewBox="0 0 131.63 166.48">
  <defs>
    <style>
      .cls-1 {
        fill: #292f36;
        stroke-width: 0px;
      }
    </style>
  </defs>
  <g id="Layer_1-2" data-name="Layer 1">
    <g>
      <g>
        <path class="cls-1" d="M12.25,153.66h.06l-.06,1.01c-.78.34-2.29.67-3.79.67-4.88,0-6.52-3.94-6.52-7.6,0-4.12,2.06-7.91,6.84-7.91,1.54,0,2.82.36,3.51.61l.15,1.03h-.06c-.84-.34-2.29-.67-3.64-.67-3.47,0-5.7,2.48-5.7,6.84,0,3.45,1.45,6.73,5.64,6.73,1.35,0,2.59-.32,3.58-.72Z"/>
        <path class="cls-1" d="M25.55,140.03h1.05v15.13h-1.05v-7.28h-8.69v7.28h-1.05v-15.13h1.05v6.92h8.69v-6.92Z"/>
        <path class="cls-1" d="M31.24,140.03h8.42v.93h-7.37v5.87h6.48v.93h-6.48v6.48h7.37v.93h-8.42v-15.13Z"/>
        <path class="cls-1" d="M43.44,155.16v-15.13h4.17c3.85,0,5.03,1.62,5.03,4.12,0,2.19-1.03,3.81-3.12,4.5l3.64,6.5h-1.18l-3.49-6.27c-.48.08-1.01.13-1.56.13h-2.44v6.14h-1.05ZM47.15,148.09c3.13,0,4.4-1.47,4.4-3.81s-1.14-3.32-4.04-3.32h-3.01v7.13h2.65Z"/>
        <path class="cls-1" d="M56.43,155.16v-15.13h4.17c3.85,0,5.03,1.62,5.03,4.12,0,2.19-1.03,3.81-3.11,4.5l3.64,6.5h-1.18l-3.49-6.27c-.48.08-1.01.13-1.56.13h-2.44v6.14h-1.05ZM60.13,148.09c3.14,0,4.4-1.47,4.4-3.81s-1.14-3.32-4.04-3.32h-3.01v7.13h2.65Z"/>
        <path class="cls-1" d="M66.99,140.03h1.22l4.06,7.7h.02l4.21-7.7h1.12l-4.82,8.8v6.33h-1.05v-6.31l-4.76-8.82Z"/>
        <path class="cls-1" d="M79.56,155.16v-15.13h5.13c4.33,0,5.66,2,5.66,4.97,0,3.43-2.19,5.45-5.85,5.45h-2.29v4.71h-2.65ZM84.37,148.3c2.15,0,3.24-1.14,3.24-3.22s-.95-2.9-2.84-2.9h-2.57v6.12h2.17Z"/>
        <path class="cls-1" d="M92.86,140.03h9.24v2.17h-6.59v4.21h5.7v2.08h-5.7v4.52h6.59v2.15h-9.24v-15.13Z"/>
        <path class="cls-1" d="M108.87,140.03h3.18l5.2,15.13h-2.74l-1.3-3.85h-5.62l-1.26,3.85h-2.71l5.26-15.13ZM108.11,149.29h4.61l-2.34-6.96-2.27,6.96Z"/>
        <path class="cls-1" d="M122.04,147.41l5.54-7.39h3.01l-5.66,7.26,5.93,7.87h-3.11l-5.7-7.58v7.58h-2.65v-15.13h2.65v7.39Z"/>
      </g>
      <g>
        <path class="cls-1" d="M45.12,52.1c-.23,0-.46-.03-.69-.09-1.36-.38-2.15-1.79-1.77-3.14,1.21-4.32,3.42-8.36,6.4-11.71,2.98-3.34,6.75-6.01,10.9-7.71,1.31-.53,2.79.09,3.33,1.4.53,1.3-.09,2.79-1.4,3.33-3.43,1.4-6.55,3.61-9.02,6.38-2.47,2.77-4.3,6.12-5.3,9.69-.32,1.13-1.34,1.86-2.46,1.86Z"/>
        <path class="cls-1" d="M86.61,39.67c-.65,0-1.31-.25-1.8-.75l-.45-.45c-1-1-1-2.61,0-3.61,1-1,2.61-1,3.61,0l.45.45c1,1,1,2.61,0,3.61-.5.5-1.15.75-1.8.75Z"/>
        <path class="cls-1" d="M131.63,27.57v108.8h-14.37l-32.12-46.73-1.24-1.8-1.72-2.5-22.25-32.38-15.34,21.83-1.22,1.73-1.84,2.61-3.32,4.72h-12.27L0,119.23V27.57h45.32c-1.58,1.42-3.03,2.98-4.35,4.66H4.66v72.78l18.93-25.8h12.21l2.85-4.06,1.96-2.78,1.27-1.8,18.11-25.75,26.45,38.48,1.76,2.56,1.14,1.66,30.39,44.21h7.26V32.22h-27.31c-1.32-1.67-2.77-3.23-4.35-4.66h36.32Z"/>
        <polygon class="cls-1" points="106.9 136.6 101.25 136.6 71.07 92.69 69.33 90.17 67.48 87.48 59.93 76.48 54.88 83.67 53.59 85.49 51.93 87.86 41.18 103.15 35.49 103.15 48.03 85.31 49.73 82.89 50.96 81.14 59.97 68.32 73.14 87.48 74.89 90.02 76.39 92.21 106.9 136.6"/>
        <path class="cls-1" d="M107.63,55.33c0,13.67-7.38,25.65-18.37,32.17l-1.14-1.66-1.76-2.56c9.66-5.59,16.17-16.02,16.17-27.95,0-17.8-14.48-32.28-32.28-32.28s-32.28,14.48-32.28,32.28c0,5.5,1.39,10.68,3.83,15.22l-1.27,1.8-1.96,2.78c-3.6-5.75-5.7-12.54-5.7-19.81,0-8.72,3.01-16.75,8.04-23.11,1.32-1.67,2.77-3.23,4.35-4.66,6.63-5.97,15.39-9.61,24.99-9.61s18.37,3.64,24.99,9.61c1.58,1.42,3.03,2.98,4.35,4.66,5.03,6.36,8.04,14.39,8.04,23.11Z"/>
        <path class="cls-1" d="M74.99,31.54s-.08,0-.12-.01c-1.22-.16-2.09-1.28-1.93-2.5,1.4-10.81,9.74-25.04,22.89-28.97,1.18-.35,3.4,1.02,3.75,2.2.35,1.18-.06,3.45-1.24,3.81-11.41,3.41-19.75,14.14-20.97,23.54-.15,1.18-1.2,2.03-2.38,1.94Z"/>
      </g>
      <g>
        <path class="cls-1" d="M18.65,163.51c0-1.72,1.31-2.97,3.07-2.97.9,0,1.67.31,2.21.9l-.54.52c-.45-.47-.99-.69-1.63-.69-1.31,0-2.28.94-2.28,2.23s.97,2.23,2.28,2.23c.64,0,1.19-.22,1.63-.7l.54.52c-.53.6-1.31.91-2.21.91-1.76,0-3.07-1.25-3.07-2.97Z"/>
        <path class="cls-1" d="M35.62,166.41l-1.25-1.78c-.12,0-.24.02-.37.02h-1.43v1.76h-.83v-5.8h2.26c1.51,0,2.42.76,2.42,2.02,0,.9-.46,1.54-1.28,1.83l1.38,1.95h-.9ZM35.6,162.63c0-.83-.56-1.3-1.62-1.3h-1.41v2.61h1.41c1.06,0,1.62-.48,1.62-1.31Z"/>
        <path class="cls-1" d="M48.62,165.69v.72h-4.21v-5.8h4.09v.72h-3.26v1.78h2.91v.7h-2.91v1.87h3.38Z"/>
        <path class="cls-1" d="M60.29,164.96h-3.08l-.64,1.45h-.85l2.63-5.8h.82l2.63,5.8h-.87l-.64-1.45ZM60,164.3l-1.25-2.84-1.25,2.84h2.5Z"/>
        <path class="cls-1" d="M70.16,161.33h-1.99v-.72h4.8v.72h-1.99v5.08h-.82v-5.08Z"/>
        <path class="cls-1" d="M80.5,160.61h.83v5.8h-.83v-5.8Z"/>
        <path class="cls-1" d="M94.69,160.61l-2.54,5.8h-.82l-2.55-5.8h.9l2.09,4.76,2.1-4.76h.83Z"/>
        <path class="cls-1" d="M106.27,165.69v.72h-4.21v-5.8h4.09v.72h-3.26v1.78h2.91v.7h-2.91v1.87h3.38Z"/>
      </g>
    </g>
  </g>
</svg>